HIERARCHY
ROOT root
{
	OFFSET 0.000000 0.000000 0.000000
	CHANNELS 6 Xposition Yposition Zposition Zrotation Yrotation Xrotation
	JOINT lhip
	{
		OFFSET 0.058581 -0.082280 -0.017664
		CHANNELS 3 Zrotation Yrotation Xrotation
		JOINT lknee
		{
			OFFSET 0.043451 -0.386469 0.008037
			CHANNELS 3 Zrotation Yrotation Xrotation
			JOINT lankle
			{
				OFFSET -0.014790 -0.426874 -0.037428
				CHANNELS 3 Zrotation Yrotation Xrotation
				JOINT ltoe
				{
					OFFSET 0.041054 -0.060286 0.122042
					CHANNELS 3 Zrotation Yrotation Xrotation
					End Site
					{
						OFFSET 0.000000 0.000000 0.000000
					}
				}
			}
		}
	}
	JOINT rhip
	{
		OFFSET -0.060310 -0.090513 -0.013543
		CHANNELS 3 Zrotation Yrotation Xrotation
		JOINT rknee
		{
			OFFSET -0.043257 -0.383688 -0.004843
			CHANNELS 3 Zrotation Yrotation Xrotation
			JOINT rankle
			{
				OFFSET 0.019056 -0.420046 -0.034562
				CHANNELS 3 Zrotation Yrotation Xrotation
				JOINT rtoe
				{
					OFFSET -0.034840 -0.062106 0.130323
					CHANNELS 3 Zrotation Yrotation Xrotation
					End Site
					{
						OFFSET 0.000000 0.000000 0.000000
					}
				}
			}
		}
	}
	JOINT lowerback
	{
		OFFSET 0.004439 0.124404 -0.038385
		CHANNELS 3 Zrotation Yrotation Xrotation
		JOINT upperback
		{
			OFFSET 0.004488 0.137956 0.026820
			CHANNELS 3 Zrotation Yrotation Xrotation
			JOINT chest
			{
				OFFSET -0.002265 0.056032 0.002855
				CHANNELS 3 Zrotation Yrotation Xrotation
				JOINT lowerneck
				{
					OFFSET -0.013390 0.211636 -0.033468
					CHANNELS 3 Zrotation Yrotation Xrotation
					JOINT upperneck
					{
						OFFSET 0.010113 0.088937 0.050410
						CHANNELS 3 Zrotation Yrotation Xrotation
						End Site
						{
							OFFSET 0.000000 0.000000 0.000000
						}
					}
				}
				JOINT lclavicle
				{
					OFFSET 0.071702 0.114000 -0.018898
					CHANNELS 3 Zrotation Yrotation Xrotation
					JOINT lshoulder
					{
						OFFSET 0.122921 0.045205 -0.019046
						CHANNELS 3 Zrotation Yrotation Xrotation
						JOINT lelbow
						{
							OFFSET 0.255332 -0.015649 -0.022946
							CHANNELS 3 Zrotation Yrotation Xrotation
							JOINT lwrist
							{
								OFFSET 0.265709 0.012698 -0.007375
								CHANNELS 3 Zrotation Yrotation Xrotation
								End Site
								{
									OFFSET 0.000000 0.000000 0.000000
								}
							}
						}
					}
				}
				JOINT rclavicle
				{
					OFFSET -0.082954 0.112472 -0.023707
					CHANNELS 3 Zrotation Yrotation Xrotation
					JOINT rshoulder
					{
						OFFSET -0.113228 0.046853 -0.008472
						CHANNELS 3 Zrotation Yrotation Xrotation
						JOINT relbow
						{
							OFFSET -0.260127 -0.014369 -0.031269
							CHANNELS 3 Zrotation Yrotation Xrotation
							JOINT rwrist
							{
								OFFSET -0.269108 0.006794 -0.006027
								CHANNELS 3 Zrotation Yrotation Xrotation
								End Site
								{
									OFFSET 0.000000 0.000000 0.000000
								}
							}
						}
					}
				}
			}
		}
	}
}
MOTION
Frames: 8
Frame Time: 0.033333
1.144663 0.567367 0.790150 85.226900 3.751172 78.102933 12.756381 10.157110 -13.238005 -8.360570 0.226154 71.475782 8.011143 5.465492 -55.238327 0.000000 -0.000000 0.000000 -5.033797 -6.679633 -16.981004 6.640985 -2.755838 71.283025 -9.094803 9.675747 -53.953472 0.000000 -0.000000 0.000000 1.310296 -2.982764 23.559301 1.389979 -3.687445 -10.631886 3.971666 3.989902 -0.356426 -4.796735 0.556560 5.787543 6.824728 1.475127 -7.701595 21.382054 -15.211328 -15.980344 -61.911819 -19.565130 -1.483355 74.088274 -74.182796 -43.809676 -42.054724 -22.139052 -34.086318 -27.255663 18.497412 -16.396167 48.012166 27.416215 -8.714565 -33.699621 80.875933 -12.177109 52.724356 24.531685 -28.250701 
1.144856 0.567906 0.790448 85.293057 3.856406 78.122597 13.060211 10.021025 -13.196120 -8.640766 0.530414 71.398565 8.033526 5.436627 -55.158007 0.000000 -0.000000 0.000000 -5.149299 -6.519379 -16.905844 7.259698 -2.826572 71.126008 -8.858295 9.473638 -53.786172 0.000000 -0.000000 0.000000 1.506749 -3.032508 23.406288 1.489598 -3.618805 -10.352917 3.847487 3.956922 -0.522593 -4.889928 0.614840 5.870251 6.506272 1.553722 -7.746195 21.070283 -15.160839 -15.745284 -61.826865 -19.888521 -1.244370 72.780229 -74.262044 -41.985642 -41.422452 -22.534162 -34.750902 -27.240517 18.365606 -16.248717 48.031681 27.661539 -8.516310 -32.623290 80.721402 -10.199604 51.612098 25.005726 -29.270815 
1.145165 0.568732 0.791115 85.423506 3.876113 78.172514 13.197184 9.889046 -13.280779 -8.995430 0.700897 71.498728 8.000897 5.298762 -54.950426 0.000000 -0.000000 0.000000 -5.282347 -6.438339 -16.742947 7.593403 -2.840297 70.868821 -8.702836 9.323507 -53.720708 0.000000 -0.000000 0.000000 1.542217 -2.981387 23.256319 1.617152 -3.619640 -10.274617 3.822173 3.911508 -0.526799 -4.914175 0.720416 5.956094 6.277414 1.508781 -7.777810 21.018217 -15.100261 -15.582300 -61.986942 -20.157729 -0.961055 71.937592 -74.360577 -40.449268 -41.074199 -22.733828 -35.092898 -27.302241 18.135458 -16.267752 48.235079 27.801470 -8.251392 -31.279999 80.761860 -8.068476 50.941220 25.454586 -30.040505 
1.145434 0.569793 0.791766 85.518332 3.846075 78.162648 13.153763 9.762797 -13.222997 -9.133475 0.696439 71.462806 8.008555 5.141187 -54.935053 0.000000 -0.000000 0.000000 -5.335004 -6.374510 -16.745669 7.491765 -2.893291 70.970695 -8.558057 9.234776 -53.452403 0.000000 -0.000000 0.000000 1.558297 -2.954470 23.335900 1.620840 -3.572222 -10.386620 3.808066 3.922809 -0.484126 -4.898136 0.659783 5.932890 6.215339 1.386871 -7.709323 21.124483 -14.977007 -15.688435 -62.215253 -20.436713 -0.740524 71.490768 -74.285303 -39.703271 -41.288581 -22.871259 -35.164513 -27.410431 17.924767 -16.439180 48.445078 27.825075 -8.017115 -31.965754 80.817155 -8.443473 51.018565 25.632529 -30.226460 
1.145660 0.570429 0.791838 85.537717 3.828511 78.137168 13.082799 9.790159 -13.127374 -9.079074 0.648405 71.392847 8.027543 5.087698 -55.008126 0.000000 -0.000000 0.000000 -5.313893 -6.321083 -16.778630 7.438184 -2.803944 71.091301 -8.503812 9.161587 -53.335839 0.000000 -0.000000 0.000000 1.601629 -2.968803 23.400310 1.573554 -3.517125 -10.509364 3.788646 3.946578 -0.419670 -4.932468 0.585602 5.925775 6.202810 1.359211 -7.610019 21.162798 -14.916902 -15.784532 -62.338193 -20.647390 -0.659974 71.305994 -74.093261 -39.581328 -41.100371 -22.913038 -35.344176 -27.495194 17.845959 -16.504559 48.509059 27.870131 -7.946990 -32.563168 80.780591 -9.012380 50.813530 25.624715 -30.324204 
1.146032 0.571121 0.791560 85.618591 3.815707 78.151447 12.989233 9.791434 -13.152387 -8.947885 0.704095 71.416624 8.058201 5.087184 -55.039925 0.000000 -0.000000 0.000000 -5.275938 -6.315079 -16.767219 7.314654 -2.755039 71.097248 -8.598100 8.878793 -53.411984 0.000000 -0.000000 0.000000 1.631057 -3.007900 23.366422 1.554647 -3.507461 -10.660709 3.780631 3.967924 -0.284499 -4.998567 0.506337 5.986722 6.136052 1.368191 -7.449511 21.148731 -14.801374 -15.927621 -62.579589 -20.951244 -0.562903 71.347791 -73.790150 -39.634641 -40.715350 -22.769101 -35.424843 -27.577039 17.751501 -16.539275 48.547598 28.033741 -7.897089 -33.236853 80.687148 -9.621005 50.412053 25.582839 -30.479820 
1.146316 0.571650 0.791090 85.757120 3.821907 78.170349 12.924999 9.754236 -13.198590 -8.813372 0.805438 71.432143 8.150110 5.146292 -55.158616 0.000000 -0.000000 0.000000 -5.274796 -6.398576 -16.730369 7.105983 -2.913116 71.122250 -8.697671 8.602346 -53.517376 0.000000 -0.000000 0.000000 1.645049 -3.016100 23.299595 1.546200 -3.510153 -10.716169 3.798151 3.970341 -0.207993 -5.016172 0.353469 6.123833 6.038637 1.422422 -7.336175 21.005173 -14.750024 -16.102634 -62.878509 -21.321418 -0.441502 71.825401 -73.477135 -39.947205 -40.709318 -22.476707 -35.155832 -27.586095 17.640034 -16.608278 48.529736 28.125444 -7.898010 -33.635460 80.644760 -9.919993 50.380558 25.565489 -30.479321 
1.146403 0.572034 0.790470 85.858486 3.842200 78.164860 12.903857 9.761024 -13.201670 -8.720430 0.844519 71.454600 8.310292 5.179058 -55.323644 0.000000 -0.000000 0.000000 -5.270206 -6.424777 -16.798038 6.978582 -3.032120 71.322886 -8.749164 8.462951 -53.511633 0.000000 -0.000000 0.000000 1.677412 -3.016970 23.257464 1.488302 -3.467556 -10.698401 3.793636 3.957884 -0.175841 -4.960781 0.132950 6.320140 6.052308 1.541752 -7.296771 20.789388 -14.805687 -16.267433 -63.139578 -21.702515 -0.320193 72.596123 -73.170260 -40.541383 -40.948833 -22.174739 -34.826331 -27.560257 17.581349 -16.664320 48.525314 28.122168 -7.934847 -34.257855 80.656741 -10.496646 50.520521 25.570136 -30.438765 
